<mxfile host="app.diagrams.net" modified="2022-07-31T14:59:36.245Z" agent="5.0 (Windows NT 10.0; Win64; x64) AppleWebKit/537.36 (KHTML, like Gecko) Chrome/103.0.0.0 Safari/537.36" etag="ObYgv9VvncwBU8-jOy74" version="20.2.2" type="github">
  <diagram id="IBu_43Mrp2dpRGFDmGJ0" name="Page-1">
    <mxGraphModel dx="1020" dy="1369" grid="1" gridSize="10" guides="1" tooltips="1" connect="1" arrows="1" fold="1" page="1" pageScale="1" pageWidth="1100" pageHeight="850" math="0" shadow="0">
      <root>
        <mxCell id="0" />
        <mxCell id="1" parent="0" />
        <mxCell id="8awDatOAhmp6VXq2ZZ0f-31" style="edgeStyle=orthogonalEdgeStyle;rounded=0;orthogonalLoop=1;jettySize=auto;html=1;exitX=1;exitY=0.5;exitDx=0;exitDy=0;entryX=0;entryY=0.5;entryDx=0;entryDy=0;" parent="1" source="8awDatOAhmp6VXq2ZZ0f-26" target="8awDatOAhmp6VXq2ZZ0f-29" edge="1">
          <mxGeometry relative="1" as="geometry" />
        </mxCell>
        <mxCell id="8awDatOAhmp6VXq2ZZ0f-47" style="edgeStyle=orthogonalEdgeStyle;rounded=0;orthogonalLoop=1;jettySize=auto;html=1;entryX=0;entryY=0.25;entryDx=0;entryDy=0;exitX=1;exitY=0.5;exitDx=0;exitDy=0;" parent="1" source="8awDatOAhmp6VXq2ZZ0f-36" target="8awDatOAhmp6VXq2ZZ0f-37" edge="1">
          <mxGeometry relative="1" as="geometry" />
        </mxCell>
        <mxCell id="8awDatOAhmp6VXq2ZZ0f-24" value="Users" style="swimlane;fontStyle=0;childLayout=stackLayout;horizontal=1;startSize=26;horizontalStack=0;resizeParent=1;resizeParentMax=0;resizeLast=0;collapsible=1;marginBottom=0;align=center;fontSize=14;fillColor=#ffe6cc;strokeColor=#d79b00;" parent="1" vertex="1">
          <mxGeometry x="40" y="40" width="100" height="386" as="geometry" />
        </mxCell>
        <mxCell id="8awDatOAhmp6VXq2ZZ0f-25" value="user_id" style="text;strokeColor=#6c8ebf;fillColor=#dae8fc;spacingLeft=4;spacingRight=4;overflow=hidden;rotatable=0;points=[[0,0.5],[1,0.5]];portConstraint=eastwest;fontSize=12;fillStyle=auto;" parent="8awDatOAhmp6VXq2ZZ0f-24" vertex="1">
          <mxGeometry y="26" width="100" height="30" as="geometry" />
        </mxCell>
        <mxCell id="8awDatOAhmp6VXq2ZZ0f-46" value="user_name" style="text;spacingLeft=4;spacingRight=4;overflow=hidden;rotatable=0;points=[[0,0.5],[1,0.5]];portConstraint=eastwest;fontSize=12;fillStyle=auto;fillColor=#e1d5e7;strokeColor=#9673a6;" parent="8awDatOAhmp6VXq2ZZ0f-24" vertex="1">
          <mxGeometry y="56" width="100" height="30" as="geometry" />
        </mxCell>
        <mxCell id="8awDatOAhmp6VXq2ZZ0f-36" value="address_id" style="text;strokeColor=#6c8ebf;fillColor=#dae8fc;spacingLeft=4;spacingRight=4;overflow=hidden;rotatable=0;points=[[0,0.5],[1,0.5]];portConstraint=eastwest;fontSize=12;" parent="8awDatOAhmp6VXq2ZZ0f-24" vertex="1">
          <mxGeometry y="86" width="100" height="30" as="geometry" />
        </mxCell>
        <mxCell id="8awDatOAhmp6VXq2ZZ0f-26" value="user_type_id" style="text;strokeColor=#9673a6;fillColor=#e1d5e7;spacingLeft=4;spacingRight=4;overflow=hidden;rotatable=0;points=[[0,0.5],[1,0.5]];portConstraint=eastwest;fontSize=12;" parent="8awDatOAhmp6VXq2ZZ0f-24" vertex="1">
          <mxGeometry y="116" width="100" height="30" as="geometry" />
        </mxCell>
        <mxCell id="8awDatOAhmp6VXq2ZZ0f-44" value="phone_no" style="text;strokeColor=#6c8ebf;fillColor=#dae8fc;spacingLeft=4;spacingRight=4;overflow=hidden;rotatable=0;points=[[0,0.5],[1,0.5]];portConstraint=eastwest;fontSize=12;" parent="8awDatOAhmp6VXq2ZZ0f-24" vertex="1">
          <mxGeometry y="146" width="100" height="30" as="geometry" />
        </mxCell>
        <mxCell id="hBHYlZeDeRZfYTCF6jD1-47" value="pan_no" style="text;spacingLeft=4;spacingRight=4;overflow=hidden;rotatable=0;points=[[0,0.5],[1,0.5]];portConstraint=eastwest;fontSize=12;fillColor=#e1d5e7;strokeColor=#9673a6;" parent="8awDatOAhmp6VXq2ZZ0f-24" vertex="1">
          <mxGeometry y="176" width="100" height="30" as="geometry" />
        </mxCell>
        <mxCell id="hBHYlZeDeRZfYTCF6jD1-48" value="vat_no" style="text;spacingLeft=4;spacingRight=4;overflow=hidden;rotatable=0;points=[[0,0.5],[1,0.5]];portConstraint=eastwest;fontSize=12;fillColor=#dae8fc;strokeColor=#6c8ebf;" parent="8awDatOAhmp6VXq2ZZ0f-24" vertex="1">
          <mxGeometry y="206" width="100" height="30" as="geometry" />
        </mxCell>
        <mxCell id="8awDatOAhmp6VXq2ZZ0f-43" value="email_address" style="text;spacingLeft=4;spacingRight=4;overflow=hidden;rotatable=0;points=[[0,0.5],[1,0.5]];portConstraint=eastwest;fontSize=12;fillColor=#e1d5e7;strokeColor=#9673a6;" parent="8awDatOAhmp6VXq2ZZ0f-24" vertex="1">
          <mxGeometry y="236" width="100" height="30" as="geometry" />
        </mxCell>
        <mxCell id="8awDatOAhmp6VXq2ZZ0f-45" value="password" style="text;spacingLeft=4;spacingRight=4;overflow=hidden;rotatable=0;points=[[0,0.5],[1,0.5]];portConstraint=eastwest;fontSize=12;fillColor=#dae8fc;strokeColor=#6c8ebf;" parent="8awDatOAhmp6VXq2ZZ0f-24" vertex="1">
          <mxGeometry y="266" width="100" height="30" as="geometry" />
        </mxCell>
        <mxCell id="8awDatOAhmp6VXq2ZZ0f-62" value="id_type_id" style="text;spacingLeft=4;spacingRight=4;overflow=hidden;rotatable=0;points=[[0,0.5],[1,0.5]];portConstraint=eastwest;fontSize=12;fillColor=#e1d5e7;strokeColor=#9673a6;" parent="8awDatOAhmp6VXq2ZZ0f-24" vertex="1">
          <mxGeometry y="296" width="100" height="30" as="geometry" />
        </mxCell>
        <mxCell id="8awDatOAhmp6VXq2ZZ0f-67" value="user_img_name" style="text;spacingLeft=4;spacingRight=4;overflow=hidden;rotatable=0;points=[[0,0.5],[1,0.5]];portConstraint=eastwest;fontSize=12;fillColor=#dae8fc;strokeColor=#6c8ebf;" parent="8awDatOAhmp6VXq2ZZ0f-24" vertex="1">
          <mxGeometry y="326" width="100" height="30" as="geometry" />
        </mxCell>
        <mxCell id="hBHYlZeDeRZfYTCF6jD1-10" value="user_status_id" style="text;spacingLeft=4;spacingRight=4;overflow=hidden;rotatable=0;points=[[0,0.5],[1,0.5]];portConstraint=eastwest;fontSize=12;fillColor=#e1d5e7;strokeColor=#9673a6;" parent="8awDatOAhmp6VXq2ZZ0f-24" vertex="1">
          <mxGeometry y="356" width="100" height="30" as="geometry" />
        </mxCell>
        <mxCell id="8awDatOAhmp6VXq2ZZ0f-28" value="UserTypes" style="swimlane;fontStyle=0;childLayout=stackLayout;horizontal=1;startSize=26;horizontalStack=0;resizeParent=1;resizeParentMax=0;resizeLast=0;collapsible=1;marginBottom=0;align=center;fontSize=14;fillColor=#ffe6cc;strokeColor=#d79b00;" parent="1" vertex="1">
          <mxGeometry x="170" y="240" width="120" height="116" as="geometry" />
        </mxCell>
        <mxCell id="8awDatOAhmp6VXq2ZZ0f-29" value="user_type_id" style="text;strokeColor=#6c8ebf;fillColor=#dae8fc;spacingLeft=4;spacingRight=4;overflow=hidden;rotatable=0;points=[[0,0.5],[1,0.5]];portConstraint=eastwest;fontSize=12;" parent="8awDatOAhmp6VXq2ZZ0f-28" vertex="1">
          <mxGeometry y="26" width="120" height="30" as="geometry" />
        </mxCell>
        <mxCell id="8awDatOAhmp6VXq2ZZ0f-30" value="user_type" style="text;strokeColor=#9673a6;fillColor=#e1d5e7;spacingLeft=4;spacingRight=4;overflow=hidden;rotatable=0;points=[[0,0.5],[1,0.5]];portConstraint=eastwest;fontSize=12;" parent="8awDatOAhmp6VXq2ZZ0f-28" vertex="1">
          <mxGeometry y="56" width="120" height="30" as="geometry" />
        </mxCell>
        <mxCell id="hBHYlZeDeRZfYTCF6jD1-11" value="user_category_id" style="text;strokeColor=#6c8ebf;fillColor=#dae8fc;spacingLeft=4;spacingRight=4;overflow=hidden;rotatable=0;points=[[0,0.5],[1,0.5]];portConstraint=eastwest;fontSize=12;" parent="8awDatOAhmp6VXq2ZZ0f-28" vertex="1">
          <mxGeometry y="86" width="120" height="30" as="geometry" />
        </mxCell>
        <mxCell id="8awDatOAhmp6VXq2ZZ0f-60" style="edgeStyle=orthogonalEdgeStyle;rounded=0;orthogonalLoop=1;jettySize=auto;html=1;entryX=0.008;entryY=0.267;entryDx=0;entryDy=0;entryPerimeter=0;exitX=1;exitY=0.5;exitDx=0;exitDy=0;" parent="1" source="8awDatOAhmp6VXq2ZZ0f-40" target="8awDatOAhmp6VXq2ZZ0f-54" edge="1">
          <mxGeometry relative="1" as="geometry" />
        </mxCell>
        <mxCell id="8awDatOAhmp6VXq2ZZ0f-37" value="Addresses" style="swimlane;fontStyle=0;childLayout=stackLayout;horizontal=1;startSize=26;horizontalStack=0;resizeParent=1;resizeParentMax=0;resizeLast=0;collapsible=1;marginBottom=0;align=center;fontSize=14;fillColor=#ffe6cc;strokeColor=#d79b00;" parent="1" vertex="1">
          <mxGeometry x="190" y="40" width="100" height="176" as="geometry" />
        </mxCell>
        <mxCell id="8awDatOAhmp6VXq2ZZ0f-38" value="address_id" style="text;strokeColor=#6c8ebf;fillColor=#dae8fc;spacingLeft=4;spacingRight=4;overflow=hidden;rotatable=0;points=[[0,0.5],[1,0.5]];portConstraint=eastwest;fontSize=12;fillStyle=auto;" parent="8awDatOAhmp6VXq2ZZ0f-37" vertex="1">
          <mxGeometry y="26" width="100" height="30" as="geometry" />
        </mxCell>
        <mxCell id="8awDatOAhmp6VXq2ZZ0f-39" value="provenience_id" style="text;strokeColor=#9673a6;fillColor=#e1d5e7;spacingLeft=4;spacingRight=4;overflow=hidden;rotatable=0;points=[[0,0.5],[1,0.5]];portConstraint=eastwest;fontSize=12;" parent="8awDatOAhmp6VXq2ZZ0f-37" vertex="1">
          <mxGeometry y="56" width="100" height="30" as="geometry" />
        </mxCell>
        <mxCell id="8awDatOAhmp6VXq2ZZ0f-40" value="district_id" style="text;strokeColor=#6c8ebf;fillColor=#dae8fc;spacingLeft=4;spacingRight=4;overflow=hidden;rotatable=0;points=[[0,0.5],[1,0.5]];portConstraint=eastwest;fontSize=12;" parent="8awDatOAhmp6VXq2ZZ0f-37" vertex="1">
          <mxGeometry y="86" width="100" height="30" as="geometry" />
        </mxCell>
        <mxCell id="8awDatOAhmp6VXq2ZZ0f-42" value="palika_id" style="text;spacingLeft=4;spacingRight=4;overflow=hidden;rotatable=0;points=[[0,0.5],[1,0.5]];portConstraint=eastwest;fontSize=12;fillColor=#e1d5e7;strokeColor=#9673a6;" parent="8awDatOAhmp6VXq2ZZ0f-37" vertex="1">
          <mxGeometry y="116" width="100" height="30" as="geometry" />
        </mxCell>
        <mxCell id="8awDatOAhmp6VXq2ZZ0f-41" value="ward_no" style="text;strokeColor=#6c8ebf;fillColor=#dae8fc;spacingLeft=4;spacingRight=4;overflow=hidden;rotatable=0;points=[[0,0.5],[1,0.5]];portConstraint=eastwest;fontSize=12;" parent="8awDatOAhmp6VXq2ZZ0f-37" vertex="1">
          <mxGeometry y="146" width="100" height="30" as="geometry" />
        </mxCell>
        <mxCell id="8awDatOAhmp6VXq2ZZ0f-48" value="Palikas" style="swimlane;fontStyle=0;childLayout=stackLayout;horizontal=1;startSize=26;horizontalStack=0;resizeParent=1;resizeParentMax=0;resizeLast=0;collapsible=1;marginBottom=0;align=center;fontSize=14;fillColor=#ffe6cc;strokeColor=#d79b00;" parent="1" vertex="1">
          <mxGeometry x="330" y="230" width="115" height="116" as="geometry" />
        </mxCell>
        <mxCell id="8awDatOAhmp6VXq2ZZ0f-49" value="palika_id" style="text;strokeColor=#6c8ebf;fillColor=#dae8fc;spacingLeft=4;spacingRight=4;overflow=hidden;rotatable=0;points=[[0,0.5],[1,0.5]];portConstraint=eastwest;fontSize=12;" parent="8awDatOAhmp6VXq2ZZ0f-48" vertex="1">
          <mxGeometry y="26" width="115" height="30" as="geometry" />
        </mxCell>
        <mxCell id="8awDatOAhmp6VXq2ZZ0f-50" value="palika_type_id" style="text;strokeColor=#9673a6;fillColor=#e1d5e7;spacingLeft=4;spacingRight=4;overflow=hidden;rotatable=0;points=[[0,0.5],[1,0.5]];portConstraint=eastwest;fontSize=12;" parent="8awDatOAhmp6VXq2ZZ0f-48" vertex="1">
          <mxGeometry y="56" width="115" height="30" as="geometry" />
        </mxCell>
        <mxCell id="8awDatOAhmp6VXq2ZZ0f-51" value="palika_name" style="text;strokeColor=#6c8ebf;fillColor=#dae8fc;spacingLeft=4;spacingRight=4;overflow=hidden;rotatable=0;points=[[0,0.5],[1,0.5]];portConstraint=eastwest;fontSize=12;" parent="8awDatOAhmp6VXq2ZZ0f-48" vertex="1">
          <mxGeometry y="86" width="115" height="30" as="geometry" />
        </mxCell>
        <mxCell id="8awDatOAhmp6VXq2ZZ0f-52" style="edgeStyle=orthogonalEdgeStyle;rounded=0;orthogonalLoop=1;jettySize=auto;html=1;entryX=0;entryY=0.5;entryDx=0;entryDy=0;" parent="1" source="8awDatOAhmp6VXq2ZZ0f-42" target="8awDatOAhmp6VXq2ZZ0f-49" edge="1">
          <mxGeometry relative="1" as="geometry" />
        </mxCell>
        <mxCell id="8awDatOAhmp6VXq2ZZ0f-53" value="Districts" style="swimlane;fontStyle=0;childLayout=stackLayout;horizontal=1;startSize=26;horizontalStack=0;resizeParent=1;resizeParentMax=0;resizeLast=0;collapsible=1;marginBottom=0;align=center;fontSize=14;fillColor=#ffe6cc;strokeColor=#d79b00;" parent="1" vertex="1">
          <mxGeometry x="330" y="130" width="130" height="86" as="geometry" />
        </mxCell>
        <mxCell id="8awDatOAhmp6VXq2ZZ0f-54" value="district_id" style="text;strokeColor=#6c8ebf;fillColor=#dae8fc;spacingLeft=4;spacingRight=4;overflow=hidden;rotatable=0;points=[[0,0.5],[1,0.5]];portConstraint=eastwest;fontSize=12;" parent="8awDatOAhmp6VXq2ZZ0f-53" vertex="1">
          <mxGeometry y="26" width="130" height="30" as="geometry" />
        </mxCell>
        <mxCell id="8awDatOAhmp6VXq2ZZ0f-55" value="distrct_name" style="text;strokeColor=#9673a6;fillColor=#e1d5e7;spacingLeft=4;spacingRight=4;overflow=hidden;rotatable=0;points=[[0,0.5],[1,0.5]];portConstraint=eastwest;fontSize=12;" parent="8awDatOAhmp6VXq2ZZ0f-53" vertex="1">
          <mxGeometry y="56" width="130" height="30" as="geometry" />
        </mxCell>
        <mxCell id="8awDatOAhmp6VXq2ZZ0f-56" value="Proveniences" style="swimlane;fontStyle=0;childLayout=stackLayout;horizontal=1;startSize=26;horizontalStack=0;resizeParent=1;resizeParentMax=0;resizeLast=0;collapsible=1;marginBottom=0;align=center;fontSize=14;fillColor=#ffe6cc;strokeColor=#d79b00;" parent="1" vertex="1">
          <mxGeometry x="330" y="40" width="130" height="82" as="geometry" />
        </mxCell>
        <mxCell id="8awDatOAhmp6VXq2ZZ0f-57" value="provenience_id" style="text;strokeColor=#6c8ebf;fillColor=#dae8fc;spacingLeft=4;spacingRight=4;overflow=hidden;rotatable=0;points=[[0,0.5],[1,0.5]];portConstraint=eastwest;fontSize=12;" parent="8awDatOAhmp6VXq2ZZ0f-56" vertex="1">
          <mxGeometry y="26" width="130" height="30" as="geometry" />
        </mxCell>
        <mxCell id="8awDatOAhmp6VXq2ZZ0f-58" value="provenience_name" style="text;strokeColor=#9673a6;fillColor=#e1d5e7;spacingLeft=4;spacingRight=4;overflow=hidden;rotatable=0;points=[[0,0.5],[1,0.5]];portConstraint=eastwest;fontSize=12;" parent="8awDatOAhmp6VXq2ZZ0f-56" vertex="1">
          <mxGeometry y="56" width="130" height="26" as="geometry" />
        </mxCell>
        <mxCell id="8awDatOAhmp6VXq2ZZ0f-61" style="edgeStyle=orthogonalEdgeStyle;rounded=0;orthogonalLoop=1;jettySize=auto;html=1;entryX=0;entryY=0.5;entryDx=0;entryDy=0;" parent="1" source="8awDatOAhmp6VXq2ZZ0f-39" target="8awDatOAhmp6VXq2ZZ0f-57" edge="1">
          <mxGeometry relative="1" as="geometry" />
        </mxCell>
        <mxCell id="8awDatOAhmp6VXq2ZZ0f-63" value="IdTypes" style="swimlane;fontStyle=0;childLayout=stackLayout;horizontal=1;startSize=26;horizontalStack=0;resizeParent=1;resizeParentMax=0;resizeLast=0;collapsible=1;marginBottom=0;align=center;fontSize=14;fillColor=#ffe6cc;strokeColor=#d79b00;" parent="1" vertex="1">
          <mxGeometry x="220" y="404" width="120" height="146" as="geometry" />
        </mxCell>
        <mxCell id="8awDatOAhmp6VXq2ZZ0f-64" value="id_type_id" style="text;strokeColor=#6c8ebf;fillColor=#dae8fc;spacingLeft=4;spacingRight=4;overflow=hidden;rotatable=0;points=[[0,0.5],[1,0.5]];portConstraint=eastwest;fontSize=12;" parent="8awDatOAhmp6VXq2ZZ0f-63" vertex="1">
          <mxGeometry y="26" width="120" height="30" as="geometry" />
        </mxCell>
        <mxCell id="8awDatOAhmp6VXq2ZZ0f-65" value="id_type" style="text;strokeColor=#9673a6;fillColor=#e1d5e7;spacingLeft=4;spacingRight=4;overflow=hidden;rotatable=0;points=[[0,0.5],[1,0.5]];portConstraint=eastwest;fontSize=12;" parent="8awDatOAhmp6VXq2ZZ0f-63" vertex="1">
          <mxGeometry y="56" width="120" height="30" as="geometry" />
        </mxCell>
        <mxCell id="8awDatOAhmp6VXq2ZZ0f-66" value="id_no" style="text;strokeColor=#6c8ebf;fillColor=#dae8fc;spacingLeft=4;spacingRight=4;overflow=hidden;rotatable=0;points=[[0,0.5],[1,0.5]];portConstraint=eastwest;fontSize=12;" parent="8awDatOAhmp6VXq2ZZ0f-63" vertex="1">
          <mxGeometry y="86" width="120" height="30" as="geometry" />
        </mxCell>
        <mxCell id="8awDatOAhmp6VXq2ZZ0f-68" value="id_doc_name" style="text;spacingLeft=4;spacingRight=4;overflow=hidden;rotatable=0;points=[[0,0.5],[1,0.5]];portConstraint=eastwest;fontSize=12;fillColor=#e1d5e7;strokeColor=#9673a6;" parent="8awDatOAhmp6VXq2ZZ0f-63" vertex="1">
          <mxGeometry y="116" width="120" height="30" as="geometry" />
        </mxCell>
        <mxCell id="hBHYlZeDeRZfYTCF6jD1-1" value="PalikaTypes" style="swimlane;fontStyle=0;childLayout=stackLayout;horizontal=1;startSize=26;horizontalStack=0;resizeParent=1;resizeParentMax=0;resizeLast=0;collapsible=1;marginBottom=0;align=center;fontSize=14;fillColor=#ffe6cc;strokeColor=#d79b00;" parent="1" vertex="1">
          <mxGeometry x="480" y="260" width="120" height="86" as="geometry" />
        </mxCell>
        <mxCell id="hBHYlZeDeRZfYTCF6jD1-2" value="palika_type_id" style="text;strokeColor=#6c8ebf;fillColor=#dae8fc;spacingLeft=4;spacingRight=4;overflow=hidden;rotatable=0;points=[[0,0.5],[1,0.5]];portConstraint=eastwest;fontSize=12;" parent="hBHYlZeDeRZfYTCF6jD1-1" vertex="1">
          <mxGeometry y="26" width="120" height="30" as="geometry" />
        </mxCell>
        <mxCell id="hBHYlZeDeRZfYTCF6jD1-3" value="palika_type" style="text;strokeColor=#9673a6;fillColor=#e1d5e7;spacingLeft=4;spacingRight=4;overflow=hidden;rotatable=0;points=[[0,0.5],[1,0.5]];portConstraint=eastwest;fontSize=12;" parent="hBHYlZeDeRZfYTCF6jD1-1" vertex="1">
          <mxGeometry y="56" width="120" height="30" as="geometry" />
        </mxCell>
        <mxCell id="hBHYlZeDeRZfYTCF6jD1-4" value="UserOperations" style="swimlane;fontStyle=0;childLayout=stackLayout;horizontal=1;startSize=26;horizontalStack=0;resizeParent=1;resizeParentMax=0;resizeLast=0;collapsible=1;marginBottom=0;align=center;fontSize=14;fillColor=#ffe6cc;strokeColor=#d79b00;" parent="1" vertex="1">
          <mxGeometry x="620" y="40" width="120" height="204" as="geometry" />
        </mxCell>
        <mxCell id="hBHYlZeDeRZfYTCF6jD1-22" value="user_operation_id" style="text;spacingLeft=4;spacingRight=4;overflow=hidden;rotatable=0;points=[[0,0.5],[1,0.5]];portConstraint=eastwest;fontSize=12;fillColor=#dae8fc;strokeColor=#6c8ebf;" parent="hBHYlZeDeRZfYTCF6jD1-4" vertex="1">
          <mxGeometry y="26" width="120" height="30" as="geometry" />
        </mxCell>
        <mxCell id="hBHYlZeDeRZfYTCF6jD1-6" value="operation_id" style="text;strokeColor=#9673a6;fillColor=#e1d5e7;spacingLeft=4;spacingRight=4;overflow=hidden;rotatable=0;points=[[0,0.5],[1,0.5]];portConstraint=eastwest;fontSize=12;" parent="hBHYlZeDeRZfYTCF6jD1-4" vertex="1">
          <mxGeometry y="56" width="120" height="30" as="geometry" />
        </mxCell>
        <mxCell id="hBHYlZeDeRZfYTCF6jD1-5" value="user_id" style="text;strokeColor=#6c8ebf;fillColor=#dae8fc;spacingLeft=4;spacingRight=4;overflow=hidden;rotatable=0;points=[[0,0.5],[1,0.5]];portConstraint=eastwest;fontSize=12;" parent="hBHYlZeDeRZfYTCF6jD1-4" vertex="1">
          <mxGeometry y="86" width="120" height="30" as="geometry" />
        </mxCell>
        <mxCell id="hBHYlZeDeRZfYTCF6jD1-7" value="operation_on" style="text;spacingLeft=4;spacingRight=4;overflow=hidden;rotatable=0;points=[[0,0.5],[1,0.5]];portConstraint=eastwest;fontSize=12;fillColor=#e1d5e7;strokeColor=#9673a6;" parent="hBHYlZeDeRZfYTCF6jD1-4" vertex="1">
          <mxGeometry y="116" width="120" height="30" as="geometry" />
        </mxCell>
        <mxCell id="hBHYlZeDeRZfYTCF6jD1-25" value="reason_of_operation" style="text;spacingLeft=4;spacingRight=4;overflow=hidden;rotatable=0;points=[[0,0.5],[1,0.5]];portConstraint=eastwest;fontSize=12;fillColor=#dae8fc;strokeColor=#6c8ebf;" parent="hBHYlZeDeRZfYTCF6jD1-4" vertex="1">
          <mxGeometry y="146" width="120" height="30" as="geometry" />
        </mxCell>
        <mxCell id="hBHYlZeDeRZfYTCF6jD1-27" value="by_admin_or_self" style="text;spacingLeft=4;spacingRight=4;overflow=hidden;rotatable=0;points=[[0,0.5],[1,0.5]];portConstraint=eastwest;fontSize=12;fillColor=#e1d5e7;strokeColor=#9673a6;" parent="hBHYlZeDeRZfYTCF6jD1-4" vertex="1">
          <mxGeometry y="176" width="120" height="28" as="geometry" />
        </mxCell>
        <mxCell id="hBHYlZeDeRZfYTCF6jD1-12" value="UserStatus" style="swimlane;fontStyle=0;childLayout=stackLayout;horizontal=1;startSize=26;horizontalStack=0;resizeParent=1;resizeParentMax=0;resizeLast=0;collapsible=1;marginBottom=0;align=center;fontSize=14;fillColor=#ffe6cc;strokeColor=#d79b00;" parent="1" vertex="1">
          <mxGeometry x="80" y="520" width="100" height="86" as="geometry" />
        </mxCell>
        <mxCell id="hBHYlZeDeRZfYTCF6jD1-13" value="user_status_id" style="text;strokeColor=#6c8ebf;fillColor=#dae8fc;spacingLeft=4;spacingRight=4;overflow=hidden;rotatable=0;points=[[0,0.5],[1,0.5]];portConstraint=eastwest;fontSize=12;" parent="hBHYlZeDeRZfYTCF6jD1-12" vertex="1">
          <mxGeometry y="26" width="100" height="30" as="geometry" />
        </mxCell>
        <mxCell id="hBHYlZeDeRZfYTCF6jD1-14" value="status_name" style="text;strokeColor=#9673a6;fillColor=#e1d5e7;spacingLeft=4;spacingRight=4;overflow=hidden;rotatable=0;points=[[0,0.5],[1,0.5]];portConstraint=eastwest;fontSize=12;" parent="hBHYlZeDeRZfYTCF6jD1-12" vertex="1">
          <mxGeometry y="56" width="100" height="30" as="geometry" />
        </mxCell>
        <mxCell id="hBHYlZeDeRZfYTCF6jD1-21" style="edgeStyle=orthogonalEdgeStyle;rounded=0;orthogonalLoop=1;jettySize=auto;html=1;exitX=1;exitY=0.5;exitDx=0;exitDy=0;entryX=0;entryY=0.5;entryDx=0;entryDy=0;" parent="1" source="8awDatOAhmp6VXq2ZZ0f-50" target="hBHYlZeDeRZfYTCF6jD1-2" edge="1">
          <mxGeometry relative="1" as="geometry" />
        </mxCell>
        <mxCell id="hBHYlZeDeRZfYTCF6jD1-24" style="edgeStyle=orthogonalEdgeStyle;rounded=0;orthogonalLoop=1;jettySize=auto;html=1;exitX=0;exitY=0.5;exitDx=0;exitDy=0;" parent="1" source="hBHYlZeDeRZfYTCF6jD1-5" target="8awDatOAhmp6VXq2ZZ0f-25" edge="1">
          <mxGeometry relative="1" as="geometry">
            <mxPoint x="610" y="120" as="sourcePoint" />
            <Array as="points">
              <mxPoint x="590" y="140" />
              <mxPoint x="590" y="10" />
              <mxPoint x="10" y="10" />
              <mxPoint x="10" y="81" />
            </Array>
          </mxGeometry>
        </mxCell>
        <mxCell id="hBHYlZeDeRZfYTCF6jD1-31" value="UserCategory" style="swimlane;fontStyle=0;childLayout=stackLayout;horizontal=1;startSize=26;horizontalStack=0;resizeParent=1;resizeParentMax=0;resizeLast=0;collapsible=1;marginBottom=0;align=center;fontSize=14;fillColor=#ffe6cc;strokeColor=#d79b00;" parent="1" vertex="1">
          <mxGeometry x="390" y="370" width="140" height="82" as="geometry" />
        </mxCell>
        <mxCell id="hBHYlZeDeRZfYTCF6jD1-32" value="user_category_id" style="text;strokeColor=#6c8ebf;fillColor=#dae8fc;spacingLeft=4;spacingRight=4;overflow=hidden;rotatable=0;points=[[0,0.5],[1,0.5]];portConstraint=eastwest;fontSize=12;" parent="hBHYlZeDeRZfYTCF6jD1-31" vertex="1">
          <mxGeometry y="26" width="140" height="30" as="geometry" />
        </mxCell>
        <mxCell id="hBHYlZeDeRZfYTCF6jD1-37" style="edgeStyle=orthogonalEdgeStyle;rounded=0;orthogonalLoop=1;jettySize=auto;html=1;exitX=1;exitY=0.5;exitDx=0;exitDy=0;" parent="hBHYlZeDeRZfYTCF6jD1-31" source="hBHYlZeDeRZfYTCF6jD1-32" target="hBHYlZeDeRZfYTCF6jD1-32" edge="1">
          <mxGeometry relative="1" as="geometry" />
        </mxCell>
        <mxCell id="hBHYlZeDeRZfYTCF6jD1-33" value="user_category_name" style="text;strokeColor=#9673a6;fillColor=#e1d5e7;spacingLeft=4;spacingRight=4;overflow=hidden;rotatable=0;points=[[0,0.5],[1,0.5]];portConstraint=eastwest;fontSize=12;" parent="hBHYlZeDeRZfYTCF6jD1-31" vertex="1">
          <mxGeometry y="56" width="140" height="26" as="geometry" />
        </mxCell>
        <mxCell id="hBHYlZeDeRZfYTCF6jD1-35" style="edgeStyle=orthogonalEdgeStyle;rounded=0;orthogonalLoop=1;jettySize=auto;html=1;exitX=1;exitY=0.5;exitDx=0;exitDy=0;entryX=0;entryY=0.5;entryDx=0;entryDy=0;" parent="1" source="hBHYlZeDeRZfYTCF6jD1-11" target="hBHYlZeDeRZfYTCF6jD1-31" edge="1">
          <mxGeometry relative="1" as="geometry">
            <Array as="points">
              <mxPoint x="320" y="341" />
              <mxPoint x="320" y="360" />
              <mxPoint x="370" y="360" />
              <mxPoint x="370" y="411" />
            </Array>
          </mxGeometry>
        </mxCell>
        <mxCell id="hBHYlZeDeRZfYTCF6jD1-52" style="edgeStyle=orthogonalEdgeStyle;rounded=0;orthogonalLoop=1;jettySize=auto;html=1;exitX=1;exitY=0.5;exitDx=0;exitDy=0;elbow=vertical;entryX=0;entryY=0.5;entryDx=0;entryDy=0;" parent="1" source="8awDatOAhmp6VXq2ZZ0f-62" target="8awDatOAhmp6VXq2ZZ0f-64" edge="1">
          <mxGeometry relative="1" as="geometry">
            <mxPoint x="160" y="460" as="targetPoint" />
            <Array as="points">
              <mxPoint x="160" y="351" />
              <mxPoint x="160" y="445" />
            </Array>
          </mxGeometry>
        </mxCell>
        <mxCell id="hBHYlZeDeRZfYTCF6jD1-54" style="edgeStyle=orthogonalEdgeStyle;rounded=0;orthogonalLoop=1;jettySize=auto;html=1;exitX=1;exitY=0.5;exitDx=0;exitDy=0;elbow=vertical;entryX=0;entryY=0.5;entryDx=0;entryDy=0;" parent="1" source="hBHYlZeDeRZfYTCF6jD1-10" target="hBHYlZeDeRZfYTCF6jD1-13" edge="1">
          <mxGeometry relative="1" as="geometry">
            <mxPoint x="70" y="550" as="targetPoint" />
            <Array as="points">
              <mxPoint x="150" y="411" />
              <mxPoint x="150" y="500" />
              <mxPoint x="60" y="500" />
              <mxPoint x="60" y="561" />
            </Array>
          </mxGeometry>
        </mxCell>
        <mxCell id="hBHYlZeDeRZfYTCF6jD1-55" value="Vendors" style="swimlane;fontStyle=0;childLayout=stackLayout;horizontal=1;startSize=26;horizontalStack=0;resizeParent=1;resizeParentMax=0;resizeLast=0;collapsible=1;marginBottom=0;align=center;fontSize=14;fillColor=#ffe6cc;strokeColor=#d79b00;" parent="1" vertex="1">
          <mxGeometry x="430" y="540" width="160" height="240" as="geometry" />
        </mxCell>
        <mxCell id="hBHYlZeDeRZfYTCF6jD1-56" value="vendor_id" style="text;strokeColor=#6c8ebf;fillColor=#dae8fc;spacingLeft=4;spacingRight=4;overflow=hidden;rotatable=0;points=[[0,0.5],[1,0.5]];portConstraint=eastwest;fontSize=12;" parent="hBHYlZeDeRZfYTCF6jD1-55" vertex="1">
          <mxGeometry y="26" width="160" height="30" as="geometry" />
        </mxCell>
        <mxCell id="hBHYlZeDeRZfYTCF6jD1-57" value="is_dry_cleaning" style="text;strokeColor=#9673a6;fillColor=#e1d5e7;spacingLeft=4;spacingRight=4;overflow=hidden;rotatable=0;points=[[0,0.5],[1,0.5]];portConstraint=eastwest;fontSize=12;" parent="hBHYlZeDeRZfYTCF6jD1-55" vertex="1">
          <mxGeometry y="56" width="160" height="34" as="geometry" />
        </mxCell>
        <mxCell id="hBHYlZeDeRZfYTCF6jD1-58" value="is_wet_cleaning" style="text;strokeColor=#6c8ebf;fillColor=#dae8fc;spacingLeft=4;spacingRight=4;overflow=hidden;rotatable=0;points=[[0,0.5],[1,0.5]];portConstraint=eastwest;fontSize=12;" parent="hBHYlZeDeRZfYTCF6jD1-55" vertex="1">
          <mxGeometry y="90" width="160" height="30" as="geometry" />
        </mxCell>
        <mxCell id="hBHYlZeDeRZfYTCF6jD1-59" value="has_machine" style="text;strokeColor=#9673a6;fillColor=#e1d5e7;spacingLeft=4;spacingRight=4;overflow=hidden;rotatable=0;points=[[0,0.5],[1,0.5]];portConstraint=eastwest;fontSize=12;" parent="hBHYlZeDeRZfYTCF6jD1-55" vertex="1">
          <mxGeometry y="120" width="160" height="30" as="geometry" />
        </mxCell>
        <mxCell id="hBHYlZeDeRZfYTCF6jD1-60" value="pick_service" style="text;strokeColor=#6c8ebf;fillColor=#dae8fc;spacingLeft=4;spacingRight=4;overflow=hidden;rotatable=0;points=[[0,0.5],[1,0.5]];portConstraint=eastwest;fontSize=12;" parent="hBHYlZeDeRZfYTCF6jD1-55" vertex="1">
          <mxGeometry y="150" width="160" height="30" as="geometry" />
        </mxCell>
        <mxCell id="hBHYlZeDeRZfYTCF6jD1-61" value="drop_service" style="text;strokeColor=#9673a6;fillColor=#e1d5e7;spacingLeft=4;spacingRight=4;overflow=hidden;rotatable=0;points=[[0,0.5],[1,0.5]];portConstraint=eastwest;fontSize=12;" parent="hBHYlZeDeRZfYTCF6jD1-55" vertex="1">
          <mxGeometry y="180" width="160" height="30" as="geometry" />
        </mxCell>
        <mxCell id="hBHYlZeDeRZfYTCF6jD1-63" value="service_area" style="text;strokeColor=#6c8ebf;fillColor=#dae8fc;spacingLeft=4;spacingRight=4;overflow=hidden;rotatable=0;points=[[0,0.5],[1,0.5]];portConstraint=eastwest;fontSize=12;" parent="hBHYlZeDeRZfYTCF6jD1-55" vertex="1">
          <mxGeometry y="210" width="160" height="30" as="geometry" />
        </mxCell>
        <mxCell id="hBHYlZeDeRZfYTCF6jD1-62" style="edgeStyle=orthogonalEdgeStyle;rounded=0;orthogonalLoop=1;jettySize=auto;html=1;entryX=0.007;entryY=0.877;entryDx=0;entryDy=0;entryPerimeter=0;elbow=vertical;" parent="1" source="hBHYlZeDeRZfYTCF6jD1-56" target="8awDatOAhmp6VXq2ZZ0f-25" edge="1">
          <mxGeometry relative="1" as="geometry">
            <Array as="points">
              <mxPoint x="400" y="581" />
              <mxPoint x="400" y="630" />
              <mxPoint x="10" y="630" />
              <mxPoint x="10" y="92" />
            </Array>
          </mxGeometry>
        </mxCell>
        <mxCell id="hBHYlZeDeRZfYTCF6jD1-64" value="Operations" style="swimlane;fontStyle=0;childLayout=stackLayout;horizontal=1;startSize=26;horizontalStack=0;resizeParent=1;resizeParentMax=0;resizeLast=0;collapsible=1;marginBottom=0;align=center;fontSize=14;fillColor=#d5e8d4;strokeColor=#82b366;" parent="1" vertex="1">
          <mxGeometry x="810" y="40" width="115" height="86" as="geometry" />
        </mxCell>
        <mxCell id="hBHYlZeDeRZfYTCF6jD1-65" value="operation_id" style="text;strokeColor=#6c8ebf;fillColor=#dae8fc;spacingLeft=4;spacingRight=4;overflow=hidden;rotatable=0;points=[[0,0.5],[1,0.5]];portConstraint=eastwest;fontSize=12;" parent="hBHYlZeDeRZfYTCF6jD1-64" vertex="1">
          <mxGeometry y="26" width="115" height="30" as="geometry" />
        </mxCell>
        <mxCell id="hBHYlZeDeRZfYTCF6jD1-66" value="operation_name" style="text;strokeColor=#9673a6;fillColor=#e1d5e7;spacingLeft=4;spacingRight=4;overflow=hidden;rotatable=0;points=[[0,0.5],[1,0.5]];portConstraint=eastwest;fontSize=12;" parent="hBHYlZeDeRZfYTCF6jD1-64" vertex="1">
          <mxGeometry y="56" width="115" height="30" as="geometry" />
        </mxCell>
        <mxCell id="hBHYlZeDeRZfYTCF6jD1-70" style="edgeStyle=orthogonalEdgeStyle;rounded=0;orthogonalLoop=1;jettySize=auto;html=1;exitX=1;exitY=0.5;exitDx=0;exitDy=0;entryX=-0.013;entryY=0.332;entryDx=0;entryDy=0;entryPerimeter=0;elbow=vertical;" parent="1" source="hBHYlZeDeRZfYTCF6jD1-6" target="hBHYlZeDeRZfYTCF6jD1-65" edge="1">
          <mxGeometry relative="1" as="geometry" />
        </mxCell>
        <mxCell id="Ryiue1BG6aHBLqB6VW56-1" value="Products" style="swimlane;fontStyle=0;childLayout=stackLayout;horizontal=1;startSize=26;horizontalStack=0;resizeParent=1;resizeParentMax=0;resizeLast=0;collapsible=1;marginBottom=0;align=center;fontSize=14;fillColor=#ffe6cc;strokeColor=#d79b00;" parent="1" vertex="1">
          <mxGeometry x="60" y="700" width="160" height="240" as="geometry" />
        </mxCell>
        <mxCell id="Ryiue1BG6aHBLqB6VW56-2" value="product_id" style="text;strokeColor=#6c8ebf;fillColor=#dae8fc;spacingLeft=4;spacingRight=4;overflow=hidden;rotatable=0;points=[[0,0.5],[1,0.5]];portConstraint=eastwest;fontSize=12;" parent="Ryiue1BG6aHBLqB6VW56-1" vertex="1">
          <mxGeometry y="26" width="160" height="30" as="geometry" />
        </mxCell>
        <mxCell id="Ryiue1BG6aHBLqB6VW56-3" value="product_name" style="text;strokeColor=#9673a6;fillColor=#e1d5e7;spacingLeft=4;spacingRight=4;overflow=hidden;rotatable=0;points=[[0,0.5],[1,0.5]];portConstraint=eastwest;fontSize=12;" parent="Ryiue1BG6aHBLqB6VW56-1" vertex="1">
          <mxGeometry y="56" width="160" height="34" as="geometry" />
        </mxCell>
        <mxCell id="Ryiue1BG6aHBLqB6VW56-4" value="category_id" style="text;strokeColor=#6c8ebf;fillColor=#dae8fc;spacingLeft=4;spacingRight=4;overflow=hidden;rotatable=0;points=[[0,0.5],[1,0.5]];portConstraint=eastwest;fontSize=12;" parent="Ryiue1BG6aHBLqB6VW56-1" vertex="1">
          <mxGeometry y="90" width="160" height="30" as="geometry" />
        </mxCell>
        <mxCell id="Ryiue1BG6aHBLqB6VW56-5" value="size_id" style="text;strokeColor=#9673a6;fillColor=#e1d5e7;spacingLeft=4;spacingRight=4;overflow=hidden;rotatable=0;points=[[0,0.5],[1,0.5]];portConstraint=eastwest;fontSize=12;" parent="Ryiue1BG6aHBLqB6VW56-1" vertex="1">
          <mxGeometry y="120" width="160" height="30" as="geometry" />
        </mxCell>
        <mxCell id="Ryiue1BG6aHBLqB6VW56-6" value="material_id" style="text;strokeColor=#6c8ebf;fillColor=#dae8fc;spacingLeft=4;spacingRight=4;overflow=hidden;rotatable=0;points=[[0,0.5],[1,0.5]];portConstraint=eastwest;fontSize=12;" parent="Ryiue1BG6aHBLqB6VW56-1" vertex="1">
          <mxGeometry y="150" width="160" height="30" as="geometry" />
        </mxCell>
        <mxCell id="Ryiue1BG6aHBLqB6VW56-7" value="product_added_by" style="text;strokeColor=#9673a6;fillColor=#e1d5e7;spacingLeft=4;spacingRight=4;overflow=hidden;rotatable=0;points=[[0,0.5],[1,0.5]];portConstraint=eastwest;fontSize=12;" parent="Ryiue1BG6aHBLqB6VW56-1" vertex="1">
          <mxGeometry y="180" width="160" height="30" as="geometry" />
        </mxCell>
        <mxCell id="Ryiue1BG6aHBLqB6VW56-8" value="price" style="text;strokeColor=#6c8ebf;fillColor=#dae8fc;spacingLeft=4;spacingRight=4;overflow=hidden;rotatable=0;points=[[0,0.5],[1,0.5]];portConstraint=eastwest;fontSize=12;" parent="Ryiue1BG6aHBLqB6VW56-1" vertex="1">
          <mxGeometry y="210" width="160" height="30" as="geometry" />
        </mxCell>
        <mxCell id="Ryiue1BG6aHBLqB6VW56-9" value="ProductSizes" style="swimlane;fontStyle=0;childLayout=stackLayout;horizontal=1;startSize=26;horizontalStack=0;resizeParent=1;resizeParentMax=0;resizeLast=0;collapsible=1;marginBottom=0;align=center;fontSize=14;fillColor=#ffe6cc;strokeColor=#d79b00;" parent="1" vertex="1">
          <mxGeometry x="252.5" y="810" width="130" height="86" as="geometry" />
        </mxCell>
        <mxCell id="Ryiue1BG6aHBLqB6VW56-10" value="size_id" style="text;strokeColor=#6c8ebf;fillColor=#dae8fc;spacingLeft=4;spacingRight=4;overflow=hidden;rotatable=0;points=[[0,0.5],[1,0.5]];portConstraint=eastwest;fontSize=12;" parent="Ryiue1BG6aHBLqB6VW56-9" vertex="1">
          <mxGeometry y="26" width="130" height="30" as="geometry" />
        </mxCell>
        <mxCell id="Ryiue1BG6aHBLqB6VW56-11" value="size_name" style="text;strokeColor=#9673a6;fillColor=#e1d5e7;spacingLeft=4;spacingRight=4;overflow=hidden;rotatable=0;points=[[0,0.5],[1,0.5]];portConstraint=eastwest;fontSize=12;" parent="Ryiue1BG6aHBLqB6VW56-9" vertex="1">
          <mxGeometry y="56" width="130" height="30" as="geometry" />
        </mxCell>
        <mxCell id="Ryiue1BG6aHBLqB6VW56-13" value="ProductCategories" style="swimlane;fontStyle=0;childLayout=stackLayout;horizontal=1;startSize=26;horizontalStack=0;resizeParent=1;resizeParentMax=0;resizeLast=0;collapsible=1;marginBottom=0;align=center;fontSize=14;fillColor=#ffe6cc;strokeColor=#d79b00;" parent="1" vertex="1">
          <mxGeometry x="252.5" y="700" width="130" height="86" as="geometry" />
        </mxCell>
        <mxCell id="Ryiue1BG6aHBLqB6VW56-14" value="category_id" style="text;strokeColor=#6c8ebf;fillColor=#dae8fc;spacingLeft=4;spacingRight=4;overflow=hidden;rotatable=0;points=[[0,0.5],[1,0.5]];portConstraint=eastwest;fontSize=12;" parent="Ryiue1BG6aHBLqB6VW56-13" vertex="1">
          <mxGeometry y="26" width="130" height="30" as="geometry" />
        </mxCell>
        <mxCell id="Ryiue1BG6aHBLqB6VW56-15" value="category_name" style="text;strokeColor=#9673a6;fillColor=#e1d5e7;spacingLeft=4;spacingRight=4;overflow=hidden;rotatable=0;points=[[0,0.5],[1,0.5]];portConstraint=eastwest;fontSize=12;" parent="Ryiue1BG6aHBLqB6VW56-13" vertex="1">
          <mxGeometry y="56" width="130" height="30" as="geometry" />
        </mxCell>
        <mxCell id="Ryiue1BG6aHBLqB6VW56-16" style="edgeStyle=orthogonalEdgeStyle;rounded=0;orthogonalLoop=1;jettySize=auto;html=1;entryX=0;entryY=0.5;entryDx=0;entryDy=0;" parent="1" source="Ryiue1BG6aHBLqB6VW56-4" target="Ryiue1BG6aHBLqB6VW56-13" edge="1">
          <mxGeometry relative="1" as="geometry" />
        </mxCell>
        <mxCell id="Ryiue1BG6aHBLqB6VW56-17" style="edgeStyle=orthogonalEdgeStyle;rounded=0;orthogonalLoop=1;jettySize=auto;html=1;entryX=0;entryY=0.5;entryDx=0;entryDy=0;" parent="1" source="Ryiue1BG6aHBLqB6VW56-5" target="Ryiue1BG6aHBLqB6VW56-10" edge="1">
          <mxGeometry relative="1" as="geometry" />
        </mxCell>
        <mxCell id="Ryiue1BG6aHBLqB6VW56-18" value="Materials" style="swimlane;fontStyle=0;childLayout=stackLayout;horizontal=1;startSize=26;horizontalStack=0;resizeParent=1;resizeParentMax=0;resizeLast=0;collapsible=1;marginBottom=0;align=center;fontSize=14;fillColor=#ffe6cc;strokeColor=#d79b00;" parent="1" vertex="1">
          <mxGeometry x="252.5" y="920" width="130" height="86" as="geometry" />
        </mxCell>
        <mxCell id="Ryiue1BG6aHBLqB6VW56-19" value="material_id" style="text;strokeColor=#6c8ebf;fillColor=#dae8fc;spacingLeft=4;spacingRight=4;overflow=hidden;rotatable=0;points=[[0,0.5],[1,0.5]];portConstraint=eastwest;fontSize=12;" parent="Ryiue1BG6aHBLqB6VW56-18" vertex="1">
          <mxGeometry y="26" width="130" height="30" as="geometry" />
        </mxCell>
        <mxCell id="Ryiue1BG6aHBLqB6VW56-20" value="material_name" style="text;strokeColor=#9673a6;fillColor=#e1d5e7;spacingLeft=4;spacingRight=4;overflow=hidden;rotatable=0;points=[[0,0.5],[1,0.5]];portConstraint=eastwest;fontSize=12;" parent="Ryiue1BG6aHBLqB6VW56-18" vertex="1">
          <mxGeometry y="56" width="130" height="30" as="geometry" />
        </mxCell>
        <mxCell id="Ryiue1BG6aHBLqB6VW56-21" style="edgeStyle=orthogonalEdgeStyle;rounded=0;orthogonalLoop=1;jettySize=auto;html=1;entryX=0;entryY=0.5;entryDx=0;entryDy=0;" parent="1" target="Ryiue1BG6aHBLqB6VW56-19" edge="1">
          <mxGeometry relative="1" as="geometry">
            <mxPoint x="220" y="870" as="sourcePoint" />
            <Array as="points">
              <mxPoint x="240" y="870" />
              <mxPoint x="240" y="961" />
            </Array>
          </mxGeometry>
        </mxCell>
        <mxCell id="Ryiue1BG6aHBLqB6VW56-22" style="edgeStyle=orthogonalEdgeStyle;rounded=0;orthogonalLoop=1;jettySize=auto;html=1;" parent="1" source="Ryiue1BG6aHBLqB6VW56-7" edge="1">
          <mxGeometry relative="1" as="geometry">
            <mxPoint x="430" y="590" as="targetPoint" />
            <Array as="points">
              <mxPoint x="410" y="900" />
              <mxPoint x="410" y="589" />
              <mxPoint x="427" y="589" />
            </Array>
          </mxGeometry>
        </mxCell>
        <mxCell id="Ryiue1BG6aHBLqB6VW56-23" value="Orders" style="swimlane;fontStyle=0;childLayout=stackLayout;horizontal=1;startSize=26;horizontalStack=0;resizeParent=1;resizeParentMax=0;resizeLast=0;collapsible=1;marginBottom=0;align=center;fontSize=14;fillColor=#ffe6cc;strokeColor=#d79b00;" parent="1" vertex="1">
          <mxGeometry x="60" y="1020" width="160" height="330" as="geometry" />
        </mxCell>
        <mxCell id="Ryiue1BG6aHBLqB6VW56-24" value="order_id" style="text;strokeColor=#6c8ebf;fillColor=#dae8fc;spacingLeft=4;spacingRight=4;overflow=hidden;rotatable=0;points=[[0,0.5],[1,0.5]];portConstraint=eastwest;fontSize=12;" parent="Ryiue1BG6aHBLqB6VW56-23" vertex="1">
          <mxGeometry y="26" width="160" height="30" as="geometry" />
        </mxCell>
        <mxCell id="Ryiue1BG6aHBLqB6VW56-25" value="product_id" style="text;strokeColor=#9673a6;fillColor=#e1d5e7;spacingLeft=4;spacingRight=4;overflow=hidden;rotatable=0;points=[[0,0.5],[1,0.5]];portConstraint=eastwest;fontSize=12;" parent="Ryiue1BG6aHBLqB6VW56-23" vertex="1">
          <mxGeometry y="56" width="160" height="34" as="geometry" />
        </mxCell>
        <mxCell id="Ryiue1BG6aHBLqB6VW56-26" value="vendor_id" style="text;strokeColor=#6c8ebf;fillColor=#dae8fc;spacingLeft=4;spacingRight=4;overflow=hidden;rotatable=0;points=[[0,0.5],[1,0.5]];portConstraint=eastwest;fontSize=12;" parent="Ryiue1BG6aHBLqB6VW56-23" vertex="1">
          <mxGeometry y="90" width="160" height="30" as="geometry" />
        </mxCell>
        <mxCell id="Ryiue1BG6aHBLqB6VW56-27" value="order_received_on" style="text;strokeColor=#9673a6;fillColor=#e1d5e7;spacingLeft=4;spacingRight=4;overflow=hidden;rotatable=0;points=[[0,0.5],[1,0.5]];portConstraint=eastwest;fontSize=12;" parent="Ryiue1BG6aHBLqB6VW56-23" vertex="1">
          <mxGeometry y="120" width="160" height="30" as="geometry" />
        </mxCell>
        <mxCell id="Ryiue1BG6aHBLqB6VW56-28" value="order_verified_on" style="text;strokeColor=#6c8ebf;fillColor=#dae8fc;spacingLeft=4;spacingRight=4;overflow=hidden;rotatable=0;points=[[0,0.5],[1,0.5]];portConstraint=eastwest;fontSize=12;" parent="Ryiue1BG6aHBLqB6VW56-23" vertex="1">
          <mxGeometry y="150" width="160" height="30" as="geometry" />
        </mxCell>
        <mxCell id="Ryiue1BG6aHBLqB6VW56-29" value="dry_or_wet" style="text;strokeColor=#9673a6;fillColor=#e1d5e7;spacingLeft=4;spacingRight=4;overflow=hidden;rotatable=0;points=[[0,0.5],[1,0.5]];portConstraint=eastwest;fontSize=12;" parent="Ryiue1BG6aHBLqB6VW56-23" vertex="1">
          <mxGeometry y="180" width="160" height="30" as="geometry" />
        </mxCell>
        <mxCell id="Ryiue1BG6aHBLqB6VW56-30" value="is_order_pick_true" style="text;strokeColor=#6c8ebf;fillColor=#dae8fc;spacingLeft=4;spacingRight=4;overflow=hidden;rotatable=0;points=[[0,0.5],[1,0.5]];portConstraint=eastwest;fontSize=12;" parent="Ryiue1BG6aHBLqB6VW56-23" vertex="1">
          <mxGeometry y="210" width="160" height="30" as="geometry" />
        </mxCell>
        <mxCell id="Ryiue1BG6aHBLqB6VW56-31" value="is_order_drop_true" style="text;spacingLeft=4;spacingRight=4;overflow=hidden;rotatable=0;points=[[0,0.5],[1,0.5]];portConstraint=eastwest;fontSize=12;fillColor=#e1d5e7;strokeColor=#9673a6;" parent="Ryiue1BG6aHBLqB6VW56-23" vertex="1">
          <mxGeometry y="240" width="160" height="30" as="geometry" />
        </mxCell>
        <mxCell id="Ryiue1BG6aHBLqB6VW56-32" value="pick_time" style="text;strokeColor=#6c8ebf;fillColor=#dae8fc;spacingLeft=4;spacingRight=4;overflow=hidden;rotatable=0;points=[[0,0.5],[1,0.5]];portConstraint=eastwest;fontSize=12;" parent="Ryiue1BG6aHBLqB6VW56-23" vertex="1">
          <mxGeometry y="270" width="160" height="30" as="geometry" />
        </mxCell>
        <mxCell id="Ryiue1BG6aHBLqB6VW56-33" value="drop_time" style="text;spacingLeft=4;spacingRight=4;overflow=hidden;rotatable=0;points=[[0,0.5],[1,0.5]];portConstraint=eastwest;fontSize=12;fillColor=#e1d5e7;strokeColor=#9673a6;" parent="Ryiue1BG6aHBLqB6VW56-23" vertex="1">
          <mxGeometry y="300" width="160" height="30" as="geometry" />
        </mxCell>
        <mxCell id="Ryiue1BG6aHBLqB6VW56-34" style="edgeStyle=orthogonalEdgeStyle;rounded=0;orthogonalLoop=1;jettySize=auto;html=1;entryX=0;entryY=0.5;entryDx=0;entryDy=0;exitX=0;exitY=0.5;exitDx=0;exitDy=0;" parent="1" source="Ryiue1BG6aHBLqB6VW56-25" target="Ryiue1BG6aHBLqB6VW56-2" edge="1">
          <mxGeometry relative="1" as="geometry" />
        </mxCell>
        <mxCell id="Ryiue1BG6aHBLqB6VW56-35" style="edgeStyle=orthogonalEdgeStyle;rounded=0;orthogonalLoop=1;jettySize=auto;html=1;entryX=1;entryY=0.5;entryDx=0;entryDy=0;" parent="1" source="Ryiue1BG6aHBLqB6VW56-26" target="hBHYlZeDeRZfYTCF6jD1-56" edge="1">
          <mxGeometry relative="1" as="geometry">
            <mxPoint x="620" y="577" as="targetPoint" />
            <Array as="points">
              <mxPoint x="240" y="1125" />
              <mxPoint x="240" y="1030" />
              <mxPoint x="610" y="1030" />
              <mxPoint x="610" y="581" />
            </Array>
          </mxGeometry>
        </mxCell>
        <mxCell id="Ryiue1BG6aHBLqB6VW56-41" style="edgeStyle=orthogonalEdgeStyle;rounded=0;orthogonalLoop=1;jettySize=auto;html=1;exitX=1;exitY=0.75;exitDx=0;exitDy=0;entryX=1;entryY=0.5;entryDx=0;entryDy=0;" parent="1" source="Ryiue1BG6aHBLqB6VW56-36" target="8awDatOAhmp6VXq2ZZ0f-25" edge="1">
          <mxGeometry relative="1" as="geometry">
            <Array as="points">
              <mxPoint x="180" y="-108" />
              <mxPoint x="180" y="81" />
            </Array>
          </mxGeometry>
        </mxCell>
        <mxCell id="Ryiue1BG6aHBLqB6VW56-36" value="Admins" style="swimlane;fontStyle=0;childLayout=stackLayout;horizontal=1;startSize=26;horizontalStack=0;resizeParent=1;resizeParentMax=0;resizeLast=0;collapsible=1;marginBottom=0;align=center;fontSize=14;fillColor=#ffe6cc;strokeColor=#d79b00;" parent="1" vertex="1">
          <mxGeometry x="70" y="-150" width="100" height="56" as="geometry" />
        </mxCell>
        <mxCell id="Ryiue1BG6aHBLqB6VW56-37" value="admin_id" style="text;strokeColor=#6c8ebf;fillColor=#dae8fc;spacingLeft=4;spacingRight=4;overflow=hidden;rotatable=0;points=[[0,0.5],[1,0.5]];portConstraint=eastwest;fontSize=12;" parent="Ryiue1BG6aHBLqB6VW56-36" vertex="1">
          <mxGeometry y="26" width="100" height="30" as="geometry" />
        </mxCell>
        <mxCell id="Ryiue1BG6aHBLqB6VW56-43" style="edgeStyle=orthogonalEdgeStyle;rounded=0;orthogonalLoop=1;jettySize=auto;html=1;entryX=1.02;entryY=0.1;entryDx=0;entryDy=0;entryPerimeter=0;" parent="1" source="Ryiue1BG6aHBLqB6VW56-39" target="8awDatOAhmp6VXq2ZZ0f-25" edge="1">
          <mxGeometry relative="1" as="geometry">
            <mxPoint x="150" y="70" as="targetPoint" />
            <Array as="points">
              <mxPoint x="170" y="-50" />
              <mxPoint x="170" y="69" />
            </Array>
          </mxGeometry>
        </mxCell>
        <mxCell id="Ryiue1BG6aHBLqB6VW56-39" value="Customers" style="swimlane;fontStyle=0;childLayout=stackLayout;horizontal=1;startSize=26;horizontalStack=0;resizeParent=1;resizeParentMax=0;resizeLast=0;collapsible=1;marginBottom=0;align=center;fontSize=14;fillColor=#ffe6cc;strokeColor=#d79b00;" parent="1" vertex="1">
          <mxGeometry x="200" y="-94" width="100" height="56" as="geometry" />
        </mxCell>
        <mxCell id="Ryiue1BG6aHBLqB6VW56-40" value="customer_id" style="text;strokeColor=#6c8ebf;fillColor=#dae8fc;spacingLeft=4;spacingRight=4;overflow=hidden;rotatable=0;points=[[0,0.5],[1,0.5]];portConstraint=eastwest;fontSize=12;" parent="Ryiue1BG6aHBLqB6VW56-39" vertex="1">
          <mxGeometry y="26" width="100" height="30" as="geometry" />
        </mxCell>
        <mxCell id="Ryiue1BG6aHBLqB6VW56-44" value="Sells" style="swimlane;fontStyle=0;childLayout=stackLayout;horizontal=1;startSize=26;horizontalStack=0;resizeParent=1;resizeParentMax=0;resizeLast=0;collapsible=1;marginBottom=0;align=center;fontSize=14;fillColor=#ffe6cc;strokeColor=#d79b00;" parent="1" vertex="1">
          <mxGeometry x="660" y="380" width="160" height="240" as="geometry" />
        </mxCell>
        <mxCell id="Ryiue1BG6aHBLqB6VW56-45" value="sell_id" style="text;strokeColor=#6c8ebf;fillColor=#dae8fc;spacingLeft=4;spacingRight=4;overflow=hidden;rotatable=0;points=[[0,0.5],[1,0.5]];portConstraint=eastwest;fontSize=12;" parent="Ryiue1BG6aHBLqB6VW56-44" vertex="1">
          <mxGeometry y="26" width="160" height="30" as="geometry" />
        </mxCell>
        <mxCell id="Ryiue1BG6aHBLqB6VW56-46" value="bill_no" style="text;strokeColor=#9673a6;fillColor=#e1d5e7;spacingLeft=4;spacingRight=4;overflow=hidden;rotatable=0;points=[[0,0.5],[1,0.5]];portConstraint=eastwest;fontSize=12;" parent="Ryiue1BG6aHBLqB6VW56-44" vertex="1">
          <mxGeometry y="56" width="160" height="34" as="geometry" />
        </mxCell>
        <mxCell id="Ryiue1BG6aHBLqB6VW56-47" value="customer_id" style="text;strokeColor=#6c8ebf;fillColor=#dae8fc;spacingLeft=4;spacingRight=4;overflow=hidden;rotatable=0;points=[[0,0.5],[1,0.5]];portConstraint=eastwest;fontSize=12;" parent="Ryiue1BG6aHBLqB6VW56-44" vertex="1">
          <mxGeometry y="90" width="160" height="30" as="geometry" />
        </mxCell>
        <mxCell id="Ryiue1BG6aHBLqB6VW56-48" value="amount" style="text;strokeColor=#9673a6;fillColor=#e1d5e7;spacingLeft=4;spacingRight=4;overflow=hidden;rotatable=0;points=[[0,0.5],[1,0.5]];portConstraint=eastwest;fontSize=12;" parent="Ryiue1BG6aHBLqB6VW56-44" vertex="1">
          <mxGeometry y="120" width="160" height="30" as="geometry" />
        </mxCell>
        <mxCell id="Ryiue1BG6aHBLqB6VW56-49" value="discount" style="text;strokeColor=#6c8ebf;fillColor=#dae8fc;spacingLeft=4;spacingRight=4;overflow=hidden;rotatable=0;points=[[0,0.5],[1,0.5]];portConstraint=eastwest;fontSize=12;" parent="Ryiue1BG6aHBLqB6VW56-44" vertex="1">
          <mxGeometry y="150" width="160" height="30" as="geometry" />
        </mxCell>
        <mxCell id="Ryiue1BG6aHBLqB6VW56-50" value="net_amount" style="text;strokeColor=#9673a6;fillColor=#e1d5e7;spacingLeft=4;spacingRight=4;overflow=hidden;rotatable=0;points=[[0,0.5],[1,0.5]];portConstraint=eastwest;fontSize=12;" parent="Ryiue1BG6aHBLqB6VW56-44" vertex="1">
          <mxGeometry y="180" width="160" height="30" as="geometry" />
        </mxCell>
        <mxCell id="Ryiue1BG6aHBLqB6VW56-51" value="commission" style="text;strokeColor=#6c8ebf;fillColor=#dae8fc;spacingLeft=4;spacingRight=4;overflow=hidden;rotatable=0;points=[[0,0.5],[1,0.5]];portConstraint=eastwest;fontSize=12;" parent="Ryiue1BG6aHBLqB6VW56-44" vertex="1">
          <mxGeometry y="210" width="160" height="30" as="geometry" />
        </mxCell>
        <mxCell id="Ryiue1BG6aHBLqB6VW56-52" style="edgeStyle=orthogonalEdgeStyle;rounded=0;orthogonalLoop=1;jettySize=auto;html=1;entryX=1;entryY=0.75;entryDx=0;entryDy=0;" parent="1" source="Ryiue1BG6aHBLqB6VW56-47" target="Ryiue1BG6aHBLqB6VW56-39" edge="1">
          <mxGeometry relative="1" as="geometry">
            <Array as="points">
              <mxPoint x="610" y="485" />
              <mxPoint x="610" y="-52" />
            </Array>
          </mxGeometry>
        </mxCell>
      </root>
    </mxGraphModel>
  </diagram>
</mxfile>
